<?xml version="1.0" encoding="UTF-8"?><svg xmlns="http://www.w3.org/2000/svg" xmlns:xlink="http://www.w3.org/1999/xlink" fill-opacity="1" color-rendering="auto" color-interpolation="auto" text-rendering="auto" stroke="black" stroke-linecap="square" width="911" stroke-miterlimit="10" shape-rendering="auto" stroke-opacity="1" fill="black" stroke-dasharray="none" font-weight="normal" stroke-width="1" height="529" font-family="'Dialog'" font-style="normal" stroke-linejoin="miter" font-size="12px" stroke-dashoffset="0" image-rendering="auto">
  <!--Generated by ySVG 2.5-->
  <defs id="genericDefs"/>
  <g>
    <defs id="defs1">
      <clipPath clipPathUnits="userSpaceOnUse" id="clipPath1">
        <path d="M0 0 L911 0 L911 529 L0 529 L0 0 Z"/>
      </clipPath>
      <clipPath clipPathUnits="userSpaceOnUse" id="clipPath2">
        <path d="M5 -15 L916 -15 L916 514 L5 514 L5 -15 Z"/>
      </clipPath>
    </defs>
    <g fill="white" text-rendering="geometricPrecision" shape-rendering="geometricPrecision" transform="translate(-5,15)" stroke="white">
      <rect x="5" width="911" height="529" y="-15" clip-path="url(#clipPath2)" stroke="none"/>
    </g>
    <g fill="rgb(255,204,0)" text-rendering="geometricPrecision" shape-rendering="geometricPrecision" transform="matrix(1,0,0,1,-5,15)" stroke="rgb(255,204,0)">
      <rect x="566.6774" y="281" clip-path="url(#clipPath2)" width="141.25" rx="4" ry="4" height="36" stroke="none"/>
    </g>
    <g text-rendering="geometricPrecision" stroke-miterlimit="1.45" shape-rendering="geometricPrecision" transform="matrix(1,0,0,1,-5,15)" stroke-linecap="butt">
      <rect x="566.6774" y="281" clip-path="url(#clipPath2)" fill="none" width="141.25" rx="4" ry="4" height="36"/>
      <text x="599.7379" xml:space="preserve" y="303.1543" clip-path="url(#clipPath2)" font-family="sans-serif" stroke="none">factorization</text>
    </g>
    <g fill="rgb(255,204,0)" text-rendering="geometricPrecision" shape-rendering="geometricPrecision" transform="matrix(1,0,0,1,-5,15)" stroke="rgb(255,204,0)">
      <rect x="329.6877" y="198" clip-path="url(#clipPath2)" width="141.25" rx="4" ry="4" height="36" stroke="none"/>
    </g>
    <g text-rendering="geometricPrecision" stroke-miterlimit="1.45" shape-rendering="geometricPrecision" transform="matrix(1,0,0,1,-5,15)" stroke-linecap="butt">
      <rect x="329.6877" y="198" clip-path="url(#clipPath2)" fill="none" width="141.25" rx="4" ry="4" height="36"/>
      <text x="382.2981" xml:space="preserve" y="220.1543" clip-path="url(#clipPath2)" font-family="sans-serif" stroke="none">Model</text>
    </g>
    <g fill="rgb(255,204,0)" text-rendering="geometricPrecision" shape-rendering="geometricPrecision" transform="matrix(1,0,0,1,-5,15)" stroke="rgb(255,204,0)">
      <rect x="619.646" y="348" clip-path="url(#clipPath2)" width="141.25" rx="4" ry="4" height="36" stroke="none"/>
    </g>
    <g text-rendering="geometricPrecision" stroke-miterlimit="1.45" shape-rendering="geometricPrecision" transform="matrix(1,0,0,1,-5,15)" stroke-linecap="butt">
      <rect x="619.646" y="348" clip-path="url(#clipPath2)" fill="none" width="141.25" rx="4" ry="4" height="36"/>
      <text x="661.8502" xml:space="preserve" y="370.1543" clip-path="url(#clipPath2)" font-family="sans-serif" stroke="none">reflection</text>
    </g>
    <g fill="rgb(255,204,0)" text-rendering="geometricPrecision" shape-rendering="geometricPrecision" transform="matrix(1,0,0,1,-5,15)" stroke="rgb(255,204,0)">
      <rect x="690.1877" y="198" clip-path="url(#clipPath2)" width="141.25" rx="4" ry="4" height="36" stroke="none"/>
    </g>
    <g text-rendering="geometricPrecision" stroke-miterlimit="1.45" shape-rendering="geometricPrecision" transform="matrix(1,0,0,1,-5,15)" stroke-linecap="butt">
      <rect x="690.1877" y="198" clip-path="url(#clipPath2)" fill="none" width="141.25" rx="4" ry="4" height="36"/>
      <text x="743.4924" xml:space="preserve" y="220.1543" clip-path="url(#clipPath2)" font-family="sans-serif" stroke="none">query</text>
    </g>
    <g fill="rgb(255,204,0)" text-rendering="geometricPrecision" shape-rendering="geometricPrecision" transform="matrix(1,0,0,1,-5,15)" stroke="rgb(255,204,0)">
      <rect x="141.4377" y="198" clip-path="url(#clipPath2)" width="141.25" rx="4" ry="4" height="36" stroke="none"/>
    </g>
    <g text-rendering="geometricPrecision" stroke-miterlimit="1.45" shape-rendering="geometricPrecision" transform="matrix(1,0,0,1,-5,15)" stroke-linecap="butt">
      <rect x="141.4377" y="198" clip-path="url(#clipPath2)" fill="none" width="141.25" rx="4" ry="4" height="36"/>
      <text x="175.7814" xml:space="preserve" y="220.1543" clip-path="url(#clipPath2)" font-family="sans-serif" stroke="none">serialization</text>
    </g>
    <g fill="rgb(153,204,255)" text-rendering="geometricPrecision" shape-rendering="geometricPrecision" transform="matrix(1,0,0,1,-5,15)" stroke="rgb(153,204,255)">
      <rect x="20" y="0" clip-path="url(#clipPath2)" width="141.25" rx="4" ry="4" height="36" stroke="none"/>
    </g>
    <g text-rendering="geometricPrecision" stroke-miterlimit="1.45" shape-rendering="geometricPrecision" transform="matrix(1,0,0,1,-5,15)" stroke-linecap="butt">
      <rect x="20" y="0" clip-path="url(#clipPath2)" fill="none" width="141.25" rx="4" ry="4" height="36"/>
      <text x="67.832" xml:space="preserve" y="22.1543" clip-path="url(#clipPath2)" font-family="sans-serif" stroke="none">storage</text>
    </g>
    <g fill="rgb(255,204,0)" text-rendering="geometricPrecision" shape-rendering="geometricPrecision" transform="matrix(1,0,0,1,-5,15)" stroke="rgb(255,204,0)">
      <rect x="501.9377" y="198" clip-path="url(#clipPath2)" width="141.25" rx="4" ry="4" height="36" stroke="none"/>
    </g>
    <g text-rendering="geometricPrecision" stroke-miterlimit="1.45" shape-rendering="geometricPrecision" transform="matrix(1,0,0,1,-5,15)" stroke-linecap="butt">
      <rect x="501.9377" y="198" clip-path="url(#clipPath2)" fill="none" width="141.25" rx="4" ry="4" height="36"/>
      <text x="553.5724" xml:space="preserve" y="220.1543" clip-path="url(#clipPath2)" font-family="sans-serif" stroke="none">typing</text>
    </g>
    <g fill="rgb(255,204,0)" text-rendering="geometricPrecision" shape-rendering="geometricPrecision" transform="matrix(1,0,0,1,-5,15)" stroke="rgb(255,204,0)">
      <rect x="229.6357" y="115" clip-path="url(#clipPath2)" width="141.25" rx="4" ry="4" height="36" stroke="none"/>
    </g>
    <g text-rendering="geometricPrecision" stroke-miterlimit="1.45" shape-rendering="geometricPrecision" transform="matrix(1,0,0,1,-5,15)" stroke-linecap="butt">
      <rect x="229.6357" y="115" clip-path="url(#clipPath2)" fill="none" width="141.25" rx="4" ry="4" height="36"/>
      <text x="291.8906" xml:space="preserve" y="137.1543" clip-path="url(#clipPath2)" font-family="sans-serif" stroke="none">trx</text>
    </g>
    <g fill="rgb(255,204,0)" text-rendering="geometricPrecision" shape-rendering="geometricPrecision" transform="matrix(1,0,0,1,-5,15)" stroke="rgb(255,204,0)">
      <rect x="415.8127" y="115" clip-path="url(#clipPath2)" width="141.25" rx="4" ry="4" height="36" stroke="none"/>
    </g>
    <g text-rendering="geometricPrecision" stroke-miterlimit="1.45" shape-rendering="geometricPrecision" transform="matrix(1,0,0,1,-5,15)" stroke-linecap="butt">
      <rect x="415.8127" y="115" clip-path="url(#clipPath2)" fill="none" width="141.25" rx="4" ry="4" height="36"/>
      <text x="469.9172" xml:space="preserve" y="137.1543" clip-path="url(#clipPath2)" font-family="sans-serif" stroke="none">index</text>
    </g>
    <g fill="rgb(153,204,255)" text-rendering="geometricPrecision" shape-rendering="geometricPrecision" transform="matrix(1,0,0,1,-5,15)" stroke="rgb(153,204,255)">
      <rect x="329.6877" y="0" clip-path="url(#clipPath2)" width="141.25" rx="4" ry="4" height="36" stroke="none"/>
    </g>
    <g text-rendering="geometricPrecision" stroke-miterlimit="1.45" shape-rendering="geometricPrecision" transform="matrix(1,0,0,1,-5,15)" stroke-linecap="butt">
      <rect x="329.6877" y="0" clip-path="url(#clipPath2)" fill="none" width="141.25" rx="4" ry="4" height="36"/>
      <text x="388.676" xml:space="preserve" y="22.1543" clip-path="url(#clipPath2)" font-family="sans-serif" stroke="none">qbit</text>
    </g>
    <g fill="rgb(153,204,255)" text-rendering="geometricPrecision" shape-rendering="geometricPrecision" transform="matrix(1,0,0,1,-5,15)" stroke="rgb(153,204,255)">
      <rect x="759.0706" y="0" clip-path="url(#clipPath2)" width="141.25" rx="4" ry="4" height="36" stroke="none"/>
    </g>
    <g text-rendering="geometricPrecision" stroke-miterlimit="1.45" shape-rendering="geometricPrecision" transform="matrix(1,0,0,1,-5,15)" stroke-linecap="butt">
      <rect x="759.0706" y="0" clip-path="url(#clipPath2)" fill="none" width="141.25" rx="4" ry="4" height="36"/>
      <text x="806.2552" xml:space="preserve" y="22.1543" clip-path="url(#clipPath2)" font-family="sans-serif" stroke="none">schema</text>
    </g>
    <g fill="rgb(204,255,204)" text-rendering="geometricPrecision" shape-rendering="geometricPrecision" transform="matrix(1,0,0,1,-5,15)" stroke="rgb(204,255,204)">
      <rect x="454.8544" y="463" clip-path="url(#clipPath2)" width="141.25" rx="4" ry="4" height="36" stroke="none"/>
    </g>
    <g text-rendering="geometricPrecision" stroke-miterlimit="1.45" shape-rendering="geometricPrecision" transform="matrix(1,0,0,1,-5,15)" stroke-linecap="butt">
      <rect x="454.8544" y="463" clip-path="url(#clipPath2)" fill="none" width="141.25" rx="4" ry="4" height="36"/>
      <text x="516.327" xml:space="preserve" y="485.1543" clip-path="url(#clipPath2)" font-family="sans-serif" stroke="none">api</text>
    </g>
    <g fill="rgb(255,204,0)" text-rendering="geometricPrecision" shape-rendering="geometricPrecision" transform="matrix(1,0,0,1,-5,15)" stroke="rgb(255,204,0)">
      <rect x="59.0417" y="281" clip-path="url(#clipPath2)" width="141.25" rx="4" ry="4" height="36" stroke="none"/>
    </g>
    <g text-rendering="geometricPrecision" stroke-miterlimit="1.45" shape-rendering="geometricPrecision" transform="matrix(1,0,0,1,-5,15)" stroke-linecap="butt">
      <rect x="59.0417" y="281" clip-path="url(#clipPath2)" fill="none" width="141.25" rx="4" ry="4" height="36"/>
      <text x="122.738" xml:space="preserve" y="303.1543" clip-path="url(#clipPath2)" font-family="sans-serif" stroke="none">ns</text>
      <path fill="none" d="M672.6149 317 L672.6148 339.9697" clip-path="url(#clipPath2)"/>
      <path d="M672.6148 347.9697 L677.6148 335.9697 L672.6148 338.9697 L667.6148 335.9697 Z" clip-path="url(#clipPath2)" stroke="none"/>
      <path fill="none" d="M725.5002 234 L725.5 332.5 L707.9273 332.5 L707.9273 339.9697" clip-path="url(#clipPath2)"/>
      <path d="M707.9273 347.9697 L712.9273 335.9697 L707.9273 338.9697 L702.9273 335.9697 Z" clip-path="url(#clipPath2)" stroke="none"/>
      <path fill="none" d="M137.7083 36 L137.7083 51.5 L159.0941 51.5 L159.0939 189.9642" clip-path="url(#clipPath2)"/>
      <path d="M159.0939 197.9642 L164.0939 185.9642 L159.0939 188.9642 L154.0939 185.9642 Z" clip-path="url(#clipPath2)" stroke="none"/>
      <path fill="none" d="M572.5627 234 L572.5627 249.5 L551.1774 249.5 L551.1774 332.5 L637.3023 332.5 L637.3023 339.9697" clip-path="url(#clipPath2)"/>
      <path d="M637.3023 347.9697 L642.3023 335.9697 L637.3023 338.9697 L632.3023 335.9697 Z" clip-path="url(#clipPath2)" stroke="none"/>
      <path fill="none" d="M619.6461 234 L619.6461 272.9541" clip-path="url(#clipPath2)"/>
      <path d="M619.6461 280.9541 L624.6461 268.9541 L619.6461 271.9541 L614.6461 268.9541 Z" clip-path="url(#clipPath2)" stroke="none"/>
      <path fill="none" d="M353.2295 151 L353.2294 189.9541" clip-path="url(#clipPath2)"/>
      <path d="M353.2294 197.9541 L358.2294 185.9541 L353.2294 188.9541 L348.2294 185.9541 Z" clip-path="url(#clipPath2)" stroke="none"/>
      <path fill="none" d="M317.917 151 L317.917 166.5 L314.1877 166.5 L314.1877 265.5 L584.3336 265.5 L584.3336 272.9697" clip-path="url(#clipPath2)"/>
      <path d="M584.3336 280.9697 L589.3336 268.9697 L584.3336 271.9697 L579.3336 268.9697 Z" clip-path="url(#clipPath2)" stroke="none"/>
      <path fill="none" d="M247.292 151 L247.292 166.5 L229.7189 166.5 L229.7189 189.9692" clip-path="url(#clipPath2)"/>
      <path d="M229.7189 197.9692 L234.7189 185.9692 L229.7189 188.9692 L224.7189 185.9692 Z" clip-path="url(#clipPath2)" stroke="none"/>
      <path fill="none" d="M458.1877 151 L458.1877 166.5 L447.396 166.5 L447.396 189.9692" clip-path="url(#clipPath2)"/>
      <path d="M447.396 197.9692 L452.396 185.9692 L447.396 188.9692 L442.396 185.9692 Z" clip-path="url(#clipPath2)" stroke="none"/>
      <path fill="none" d="M514.6877 151 L514.6877 182.5 L572.5627 182.5 L572.5627 189.9697" clip-path="url(#clipPath2)"/>
      <path d="M572.5627 197.9697 L577.5627 185.9697 L572.5627 188.9697 L567.5627 185.9697 Z" clip-path="url(#clipPath2)" stroke="none"/>
      <path fill="none" d="M429.9377 151 L429.9377 182.5 L265.0315 182.5 L265.0315 189.9697" clip-path="url(#clipPath2)"/>
      <path d="M265.0315 197.9697 L270.0315 185.9697 L265.0315 188.9697 L260.0315 185.9697 Z" clip-path="url(#clipPath2)" stroke="none"/>
      <path fill="none" d="M542.9377 151 L542.9377 166.5 L760.8127 166.5 L760.8127 189.9692" clip-path="url(#clipPath2)"/>
      <path d="M760.8127 197.9692 L765.8127 185.9692 L760.8127 188.9692 L755.8127 185.9692 Z" clip-path="url(#clipPath2)" stroke="none"/>
      <path fill="none" d="M400.3127 36 L400.3127 189.9604" clip-path="url(#clipPath2)"/>
      <path d="M400.3127 197.9604 L405.3127 185.9604 L400.3127 188.9604 L395.3127 185.9604 Z" clip-path="url(#clipPath2)" stroke="none"/>
      <path fill="none" d="M440.6698 36 L440.6698 83.5 L658.6877 83.5 L658.6877 249.5 L654.9586 249.5 L654.9586 272.9692" clip-path="url(#clipPath2)"/>
      <path d="M654.9586 280.9692 L659.9586 268.9692 L654.9586 271.9692 L649.9586 268.9692 Z" clip-path="url(#clipPath2)" stroke="none"/>
      <path fill="none" d="M359.9556 36 L359.9556 83.5 L194.4064 83.5 L194.4064 189.972" clip-path="url(#clipPath2)"/>
      <path d="M194.4064 197.972 L199.4064 185.972 L194.4064 188.972 L189.4064 185.972 Z" clip-path="url(#clipPath2)" stroke="none"/>
      <path fill="none" d="M420.4913 36 L420.4913 99.5 L486.4377 99.5 L486.4377 106.9697" clip-path="url(#clipPath2)"/>
      <path d="M486.4377 114.9697 L491.4377 102.9697 L486.4377 105.9697 L481.4377 102.9697 Z" clip-path="url(#clipPath2)" stroke="none"/>
      <path fill="none" d="M380.1341 36 L380.1341 99.5 L300.2607 99.5 L300.2607 106.9697" clip-path="url(#clipPath2)"/>
      <path d="M300.2607 114.9697 L305.2607 102.9697 L300.2607 105.9697 L295.2607 102.9697 Z" clip-path="url(#clipPath2)" stroke="none"/>
      <path fill="none" d="M829.6956 36 L829.6956 51.5 L846.9377 51.5 L846.9377 314.5 L743.2398 314.5 L743.2398 339.9673" clip-path="url(#clipPath2)"/>
      <path d="M743.2398 347.9673 L748.2398 335.9673 L743.2398 338.9673 L738.2398 335.9673 Z" clip-path="url(#clipPath2)" stroke="none"/>
      <path fill="none" d="M782.6123 36 L782.6123 51.5 L674.6877 51.5 L674.6877 249.5 L690.2711 249.5 L690.2711 272.9692" clip-path="url(#clipPath2)"/>
      <path d="M690.2711 280.9692 L695.2711 268.9692 L690.2711 271.9692 L685.2711 268.9692 Z" clip-path="url(#clipPath2)" stroke="none"/>
      <path fill="none" d="M460.8484 36 L460.8484 67.5 L862.9377 67.5 L862.9377 431.5 L576.843 431.5 L576.843 454.9692" clip-path="url(#clipPath2)"/>
      <path d="M576.843 462.9692 L581.843 450.9692 L576.843 453.9692 L571.843 450.9692 Z" clip-path="url(#clipPath2)" stroke="none"/>
      <path fill="none" d="M282.6045 151 L282.6045 166.5 L298.1877 166.5 L298.1877 413.5 L486.9566 413.5 L486.9566 454.9517" clip-path="url(#clipPath2)"/>
      <path d="M486.9566 462.9517 L491.9566 450.9517 L486.9566 453.9517 L481.9566 450.9517 Z" clip-path="url(#clipPath2)" stroke="none"/>
      <path fill="none" d="M486.4377 151 L486.4377 381.5 L512.6384 381.5 L512.6384 454.9602" clip-path="url(#clipPath2)"/>
      <path d="M512.6384 462.9602 L517.6384 450.9602 L512.6384 453.9602 L507.6384 450.9602 Z" clip-path="url(#clipPath2)" stroke="none"/>
      <path fill="none" d="M525.4794 234 L525.4794 454.972" clip-path="url(#clipPath2)"/>
      <path d="M525.4794 462.972 L530.4794 450.972 L525.4794 453.972 L520.4794 450.972 Z" clip-path="url(#clipPath2)" stroke="none"/>
      <path fill="none" d="M796.1252 234 L796.1254 415.5 L564.0021 415.5 L564.0021 454.9536" clip-path="url(#clipPath2)"/>
      <path d="M564.0021 462.9536 L569.0021 450.9536 L564.0021 453.9536 L559.0021 450.9536 Z" clip-path="url(#clipPath2)" stroke="none"/>
      <path fill="none" d="M400.3127 234 L400.3127 397.5 L499.7975 397.5 L499.7975 454.968" clip-path="url(#clipPath2)"/>
      <path d="M499.7975 462.968 L504.7975 450.968 L499.7975 453.968 L494.7975 450.968 Z" clip-path="url(#clipPath2)" stroke="none"/>
      <path fill="none" d="M601.9899 317 L601.9897 381.5 L538.3203 381.5 L538.3203 454.9602" clip-path="url(#clipPath2)"/>
      <path d="M538.3203 462.9602 L543.3203 450.9602 L538.3203 453.9602 L533.3203 450.9602 Z" clip-path="url(#clipPath2)" stroke="none"/>
      <path fill="none" d="M690.2711 384 L690.2711 399.5 L551.1612 399.5 L551.1612 454.969" clip-path="url(#clipPath2)"/>
      <path d="M551.1612 462.969 L556.1612 450.969 L551.1612 453.969 L546.1612 450.969 Z" clip-path="url(#clipPath2)" stroke="none"/>
      <path fill="none" d="M876.779 36 L876.779 447.5 L589.6839 447.5 L589.6839 454.9697" clip-path="url(#clipPath2)"/>
      <path d="M589.6839 462.9697 L594.6839 450.9697 L589.6839 453.9697 L584.6839 450.9697 Z" clip-path="url(#clipPath2)" stroke="none"/>
      <path fill="none" d="M247.3752 234 L247.3754 429.5 L474.1157 429.5 L474.1157 454.9673" clip-path="url(#clipPath2)"/>
      <path d="M474.1157 462.9673 L479.1157 450.9673 L474.1157 453.9673 L469.1157 450.9673 Z" clip-path="url(#clipPath2)" stroke="none"/>
      <path fill="none" d="M43.5417 36 L43.5417 445.5 L461.2748 445.5 L461.2748 454.9658" clip-path="url(#clipPath2)"/>
      <path d="M461.2748 462.9658 L466.2748 450.9658 L461.2748 453.9658 L456.2748 450.9658 Z" clip-path="url(#clipPath2)" stroke="none"/>
      <path fill="none" d="M176.7502 234 L176.75 272.9541" clip-path="url(#clipPath2)"/>
      <path d="M176.75 280.9541 L181.75 268.9541 L176.75 271.9541 L171.75 268.9541 Z" clip-path="url(#clipPath2)" stroke="none"/>
      <path fill="none" d="M90.625 36 L90.625 231.5 L82.5833 231.5 L82.5833 272.9517" clip-path="url(#clipPath2)"/>
      <path d="M82.5833 280.9517 L87.5833 268.9517 L82.5833 271.9517 L77.5833 268.9517 Z" clip-path="url(#clipPath2)" stroke="none"/>
      <path fill="none" d="M339.777 36 L339.777 67.5 L125.9377 67.5 L125.9377 249.5 L129.6667 249.5 L129.6667 272.9692" clip-path="url(#clipPath2)"/>
      <path d="M129.6667 280.9692 L134.6667 268.9692 L129.6667 271.9692 L124.6667 268.9692 Z" clip-path="url(#clipPath2)" stroke="none"/>
    </g>
  </g>
</svg>
